  0
SECTION
  2
HEADER
  9
$ACADVER
  1
AC1014
  9
$ACADMAINTVER
 70
     9
  9
$DWGCODEPAGE
  3
ANSI_1250
  9
$INSBASE
 10
0.0
 20
0.0
 30
0.0
  9
$EXTMIN
 10
1.000000000000000E+20
 20
1.000000000000000E+20
 30
1.000000000000000E+20
  9
$EXTMAX
 10
-1.000000000000000E+20
 20
-1.000000000000000E+20
 30
-1.000000000000000E+20
  9
$LIMMIN
 10
0.0
 20
0.0
  9
$LIMMAX
 10
420.0
 20
297.0
  9
$ORTHOMODE
 70
     0
  9
$REGENMODE
 70
     1
  9
$FILLMODE
 70
     1
  9
$QTEXTMODE
 70
     0
  9
$MIRRTEXT
 70
     1
  9
$DRAGMODE
 70
     2
  9
$LTSCALE
 40
1.0
  9
$OSMODE
 70
   511
  9
$ATTMODE
 70
     1
  9
$TEXTSIZE
 40
3.5
  9
$TRACEWID
 40
1.0
  9
$TEXTSTYLE
  7
STANDARD
  9
$CLAYER
  8
0
  9
$CELTYPE
  6
BYLAYER
  9
$CECOLOR
 62
   256
  9
$CELTSCALE
 40
1.0
  9
$DELOBJ
 70
     1
  9
$DISPSILH
 70
     0
  9
$DIMSCALE
 40
1.0
  9
$DIMASZ
 40
3.302
  9
$DIMEXO
 40
1.0
  9
$DIMDLI
 40
3.75
  9
$DIMRND
 40
0.0
  9
$DIMDLE
 40
0.0
  9
$DIMEXE
 40
1.0
  9
$DIMTP
 40
0.0
  9
$DIMTM
 40
0.0
  9
$DIMTXT
 40
3.5
  9
$DIMCEN
 40
2.5
  9
$DIMTSZ
 40
0.0
  9
$DIMTOL
 70
     0
  9
$DIMLIM
 70
     0
  9
$DIMTIH
 70
     1
  9
$DIMTOH
 70
     1
  9
$DIMSE1
 70
     0
  9
$DIMSE2
 70
     0
  9
$DIMTAD
 70
     1
  9
$DIMZIN
 70
     0
  9
$DIMBLK
  1

  9
$DIMASO
 70
     1
  9
$DIMSHO
 70
     1
  9
$DIMPOST
  1

  9
$DIMAPOST
  1

  9
$DIMALT
 70
     0
  9
$DIMALTD
 70
     3
  9
$DIMALTF
 40
0.0393700787
  9
$DIMLFAC
 40
1.0
  9
$DIMTOFL
 70
     1
  9
$DIMTVP
 40
0.0
  9
$DIMTIX
 70
     0
  9
$DIMSOXD
 70
     0
  9
$DIMSAH
 70
     0
  9
$DIMBLK1
  1

  9
$DIMBLK2
  1

  9
$DIMSTYLE
  2
ISO-25
  9
$DIMCLRD
 70
     0
  9
$DIMCLRE
 70
     0
  9
$DIMCLRT
 70
     0
  9
$DIMTFAC
 40
1.0
  9
$DIMGAP
 40
1.524
  9
$DIMJUST
 70
     0
  9
$DIMSD1
 70
     0
  9
$DIMSD2
 70
     0
  9
$DIMTOLJ
 70
     1
  9
$DIMTZIN
 70
     0
  9
$DIMALTZ
 70
     0
  9
$DIMALTTZ
 70
     0
  9
$DIMFIT
 70
     5
  9
$DIMUPT
 70
     0
  9
$DIMUNIT
 70
     2
  9
$DIMDEC
 70
     2
  9
$DIMTDEC
 70
     2
  9
$DIMALTU
 70
     2
  9
$DIMALTTD
 70
     2
  9
$DIMTXSTY
  7
STANDARD
  9
$DIMAUNIT
 70
     0
  9
$LUNITS
 70
     2
  9
$LUPREC
 70
     2
  9
$SKETCHINC
 40
1.0
  9
$FILLETRAD
 40
10.0
  9
$AUNITS
 70
     0
  9
$AUPREC
 70
     2
  9
$MENU
  1
.
  9
$ELEVATION
 40
0.0
  9
$PELEVATION
 40
0.0
  9
$THICKNESS
 40
0.0
  9
$LIMCHECK
 70
     0
  9
$CHAMFERA
 40
0.0
  9
$CHAMFERB
 40
0.0
  9
$CHAMFERC
 40
0.0
  9
$CHAMFERD
 40
0.0
  9
$SKPOLY
 70
     0
  9
$TDCREATE
 40
2458544.088619896
  9
$TDUPDATE
 40
2458544.092195613
  9
$TDINDWG
 40
0.0020440278
  9
$TDUSRTIMER
 40
2458544.048485046
  9
$USRTIMER
 70
     1
  9
$ANGBASE
 50
0.0
  9
$ANGDIR
 70
     0
  9
$PDMODE
 70
     0
  9
$PDSIZE
 40
-1.0
  9
$PLINEWID
 40
0.0
  9
$COORDS
 70
     1
  9
$SPLFRAME
 70
     0
  9
$SPLINETYPE
 70
     6
  9
$SPLINESEGS
 70
     8
  9
$ATTDIA
 70
     0
  9
$ATTREQ
 70
     1
  9
$HANDLING
 70
     1
  9
$HANDSEED
  5
5C9
  9
$SURFTAB1
 70
     6
  9
$SURFTAB2
 70
     6
  9
$SURFTYPE
 70
     6
  9
$SURFU
 70
     6
  9
$SURFV
 70
     6
  9
$UCSNAME
  2

  9
$UCSORG
 10
0.0
 20
0.0
 30
0.0
  9
$UCSXDIR
 10
1.0
 20
0.0
 30
0.0
  9
$UCSYDIR
 10
0.0
 20
1.0
 30
0.0
  9
$PUCSNAME
  2

  9
$PUCSORG
 10
0.0
 20
0.0
 30
0.0
  9
$PUCSXDIR
 10
1.0
 20
0.0
 30
0.0
  9
$PUCSYDIR
 10
0.0
 20
1.0
 30
0.0
  9
$USERI1
 70
     0
  9
$USERI2
 70
     0
  9
$USERI3
 70
     0
  9
$USERI4
 70
     0
  9
$USERI5
 70
     0
  9
$USERR1
 40
0.0
  9
$USERR2
 40
0.0
  9
$USERR3
 40
0.0
  9
$USERR4
 40
0.0
  9
$USERR5
 40
0.0
  9
$WORLDVIEW
 70
     1
  9
$SHADEDGE
 70
     3
  9
$SHADEDIF
 70
    70
  9
$TILEMODE
 70
     1
  9
$MAXACTVP
 70
    64
  9
$PINSBASE
 10
0.0
 20
0.0
 30
0.0
  9
$PLIMCHECK
 70
     0
  9
$PEXTMIN
 10
1.000000000000000E+20
 20
1.000000000000000E+20
 30
1.000000000000000E+20
  9
$PEXTMAX
 10
-1.000000000000000E+20
 20
-1.000000000000000E+20
 30
-1.000000000000000E+20
  9
$PLIMMIN
 10
0.0
 20
0.0
  9
$PLIMMAX
 10
0.0
 20
0.0
  9
$UNITMODE
 70
     0
  9
$VISRETAIN
 70
     1
  9
$PLINEGEN
 70
     0
  9
$PSLTSCALE
 70
     1
  9
$TREEDEPTH
 70
  3020
  9
$PICKSTYLE
 70
     1
  9
$CMLSTYLE
  2
STANDARD
  9
$CMLJUST
 70
     0
  9
$CMLSCALE
 40
1.0
  9
$PROXYGRAPHICS
 70
     1
  9
$MEASUREMENT
 70
     0
  0
ENDSEC
  0
SECTION
  2
CLASSES
  0
CLASS
  1
ACDBDICTIONARYWDFLT
  2
AcDbDictionaryWithDefault
  3
ObjectDBX Classes
 90
        0
280
     0
281
     0
  0
CLASS
  1
MATERIAL
  2
AcDbMaterial
  3
ObjectDBX Classes
 90
     1153
280
     0
281
     0
  0
CLASS
  1
SCALE
  2
AcDbScale
  3
ObjectDBX Classes
 90
     1153
280
     0
281
     0
  0
CLASS
  1
VISUALSTYLE
  2
AcDbVisualStyle
  3
ObjectDBX Classes
 90
     4095
280
     0
281
     0
  0
CLASS
  1
TABLESTYLE
  2
AcDbTableStyle
  3
ObjectDBX Classes
 90
     4095
280
     0
281
     0
  0
CLASS
  1
MLEADERSTYLE
  2
AcDbMLeaderStyle
  3
ACDB_MLEADERSTYLE_CLASS
 90
     4095
280
     0
281
     0
  0
CLASS
  1
SUN
  2
AcDbSun
  3
SCENEOE
 90
     1153
280
     0
281
     0
  0
CLASS
  1
RASTERVARIABLES
  2
AcDbRasterVariables
  3
ISM
 90
        0
280
     0
281
     0
  0
CLASS
  1
XRECORD
  2
AcDbXrecord
  3
ObjectDBX Classes
 90
        0
280
     0
281
     0
  0
CLASS
  1
LWPOLYLINE
  2
AcDbPolyline
  3
ObjectDBX Classes
 90
        0
280
     0
281
     1
  0
CLASS
  1
HATCH
  2
AcDbHatch
  3
ObjectDBX Classes
 90
        0
280
     0
281
     1
  0
ENDSEC
  0
SECTION
  2
TABLES
  0
TABLE
  2
VPORT
  5
1F5
330
0
100
AcDbSymbolTable
 70
     1
  0
VPORT
  5
20C
330
1F5
100
AcDbSymbolTableRecord
100
AcDbViewportTableRecord
  2
*ACTIVE
 70
     0
 10
0.0
 20
0.0
 11
1.0
 21
1.0
 12
25.33085932584567
 22
27.51098561246641
 13
0.0
 23
0.0
 14
10.0
 24
10.0
 15
10.0
 25
10.0
 16
0.0
 26
0.0
 36
1.0
 17
0.0
 27
0.0
 37
0.0
 40
616.7191871466966
 41
2.127345844504021
 42
50.0
 43
0.0
 44
0.0
 50
0.0
 51
0.0
 71
    16
 72
   100
 73
     1
 74
     3
 75
     0
 76
     0
 77
     0
 78
     0
  0
ENDTAB
  0
TABLE
  2
LTYPE
  5
1F2
330
0
100
AcDbSymbolTable
 70
     6
  0
LTYPE
  5
200
330
1F2
100
AcDbSymbolTableRecord
100
AcDbLinetypeTableRecord
  2
BYBLOCK
 70
     0
  3

 72
    65
 73
     0
 40
0.0
  0
LTYPE
  5
201
330
1F2
100
AcDbSymbolTableRecord
100
AcDbLinetypeTableRecord
  2
BYLAYER
 70
     0
  3

 72
    65
 73
     0
 40
0.0
  0
LTYPE
  5
202
330
1F2
100
AcDbSymbolTableRecord
100
AcDbLinetypeTableRecord
  2
CONTINUOUS
 70
     0
  3
Solid line
 72
    65
 73
     0
 40
0.0
  0
LTYPE
  5
20E
330
1F2
100
AcDbSymbolTableRecord
100
AcDbLinetypeTableRecord
  2
HIDDEN
 70
     0
  3
Hidden __ __ __ __ __ __ __ __ __ __ __ __ __ __
 72
    65
 73
     2
 40
1.905
 49
1.27
 74
     0
 49
-0.635
 74
     0
  0
LTYPE
  5
20F
330
1F2
100
AcDbSymbolTableRecord
100
AcDbLinetypeTableRecord
  2
PHANTOM
 70
     0
  3
Phantom ______  __  __  ______  __  __  ______
 72
    65
 73
     6
 40
12.7
 49
6.35
 74
     0
 49
-1.27
 74
     0
 49
1.27
 74
     0
 49
-1.27
 74
     0
 49
1.27
 74
     0
 49
-1.27
 74
     0
  0
LTYPE
  5
210
330
1F2
100
AcDbSymbolTableRecord
100
AcDbLinetypeTableRecord
  2
CENTER
 70
     0
  3
Center ____ _ ____ _ ____ _ ____ _ ____ _ ____
 72
    65
 73
     4
 40
10.16
 49
6.35
 74
     0
 49
-1.27
 74
     0
 49
1.27
 74
     0
 49
-1.27
 74
     0
  0
LTYPE
  5
211
330
1F2
100
AcDbSymbolTableRecord
100
AcDbLinetypeTableRecord
  2
CENTERX2
 70
     0
  3
Center (2x) ________  __  ________  __  _____
 72
    65
 73
     4
 40
20.32
 49
12.7
 74
     0
 49
-2.54
 74
     0
 49
2.54
 74
     0
 49
-2.54
 74
     0
  0
LTYPE
  5
212
330
1F2
100
AcDbSymbolTableRecord
100
AcDbLinetypeTableRecord
  2
DOT2
 70
     0
  3
Dot (.5x) ........................................
 72
    65
 73
     2
 40
0.635
 49
0.0
 74
     0
 49
-0.635
 74
     0
  0
ENDTAB
  0
TABLE
  2
LAYER
  5
1EF
330
0
100
AcDbSymbolTable
 70
     1
  0
LAYER
  5
1FD
330
1EF
100
AcDbSymbolTableRecord
100
AcDbLayerTableRecord
  2
0
 70
     0
 62
     7
  6
CONTINUOUS
  0
ENDTAB
  0
TABLE
  2
STYLE
  5
1F0
330
0
100
AcDbSymbolTable
 70
     1
  0
STYLE
  5
1FE
330
1F0
100
AcDbSymbolTableRecord
100
AcDbTextStyleTableRecord
  2
STANDARD
 70
     0
 40
0.0
 41
1.0
 50
0.0
 71
     0
 42
3.5
  3
txt
  4

  0
ENDTAB
  0
TABLE
  2
VIEW
  5
1F3
330
0
100
AcDbSymbolTable
 70
     0
  0
ENDTAB
  0
TABLE
  2
UCS
  5
1F4
330
0
100
AcDbSymbolTable
 70
     0
  0
ENDTAB
  0
TABLE
  2
APPID
  5
1F6
330
0
100
AcDbSymbolTable
 70
     1
  0
APPID
  5
1FF
330
1F6
100
AcDbSymbolTableRecord
100
AcDbRegAppTableRecord
  2
ACAD
 70
     0
  0
ENDTAB
  0
TABLE
  2
DIMSTYLE
  5
1F7
330
0
100
AcDbSymbolTable
 70
     1
  0
DIMSTYLE
105
21A
330
1F7
100
AcDbSymbolTableRecord
100
AcDbDimStyleTableRecord
  2
ISO-25
 70
     0
  3

  4

  5

  6

  7

 40
1.0
 41
2.5
 42
0.625
 43
3.75
 44
1.25
 45
0.0
 46
0.0
 47
0.0
 48
0.0
140
2.5
141
2.5
142
0.0
143
0.0393700787
144
1.0
145
0.0
146
1.0
147
0.625
 71
     0
 72
     0
 73
     0
 74
     0
 75
     0
 76
     0
 77
     1
 78
     8
170
     0
171
     3
172
     1
173
     0
174
     0
175
     0
176
     0
177
     0
178
     0
270
     2
271
     4
272
     4
273
     2
274
     2
340
1FE
275
     0
280
     0
281
     0
282
     0
283
     1
284
     0
285
     0
286
     0
287
     3
288
     0
  0
ENDTAB
  0
TABLE
  2
BLOCK_RECORD
  5
1EE
330
0
100
AcDbSymbolTable
 70
     0
  0
BLOCK_RECORD
  5
209
330
1EE
100
AcDbSymbolTableRecord
100
AcDbBlockTableRecord
  2
*MODEL_SPACE
  0
BLOCK_RECORD
  5
207
330
1EE
100
AcDbSymbolTableRecord
100
AcDbBlockTableRecord
  2
*PAPER_SPACE
  0
ENDTAB
  0
ENDSEC
  0
SECTION
  2
BLOCKS
  0
BLOCK
  5
21B
330
209
100
AcDbEntity
  8
0
100
AcDbBlockBegin
  2
*MODEL_SPACE
 70
     0
 10
0.0
 20
0.0
 30
0.0
  3
*MODEL_SPACE
  1

  0
ENDBLK
  5
21
330
209
100
AcDbEntity
  8
0
100
AcDbBlockEnd
  0
BLOCK
  5
21C
330
207
100
AcDbEntity
 67
     1
  8
0
100
AcDbBlockBegin
  2
*PAPER_SPACE
 70
     0
 10
0.0
 20
0.0
 30
0.0
  3
*PAPER_SPACE
  1

  0
ENDBLK
  5
1D
330
207
100
AcDbEntity
 67
     1
  8
0
100
AcDbBlockEnd
  0
ENDSEC
  0
SECTION
  2
ENTITIES
  0
CIRCLE
  5
F1
330
209
100
AcDbEntity
  8
0
  6
CONTINUOUS
 62
     7
100
AcDbCircle
 10
-450.0
 20
8.5
 30
0.0
 40
2.25000000000002
  0
CIRCLE
  5
F2
330
209
100
AcDbEntity
  8
0
  6
CONTINUOUS
 62
     7
100
AcDbCircle
 10
0.0
 20
8.5
 30
0.0
 40
2.249999999999996
  0
CIRCLE
  5
F3
330
209
100
AcDbEntity
  8
0
  6
CONTINUOUS
 62
     7
100
AcDbCircle
 10
450.0
 20
8.5
 30
0.0
 40
2.249999999999972
  0
CIRCLE
  5
F4
330
209
100
AcDbEntity
  8
0
  6
CONTINUOUS
 62
     7
100
AcDbCircle
 10
504.25
 20
-66.5
 30
0.0
 40
4.25
  0
CIRCLE
  5
F5
330
209
100
AcDbEntity
  8
0
  6
CONTINUOUS
 62
     7
100
AcDbCircle
 10
-504.25
 20
-66.5
 30
0.0
 40
4.249999999999886
  0
CIRCLE
  5
F6
330
209
100
AcDbEntity
  8
0
  6
CONTINUOUS
 62
     7
100
AcDbCircle
 10
-144.2
 20
-66.5
 30
0.0
 40
4.249999999999986
  0
CIRCLE
  5
F7
330
209
100
AcDbEntity
  8
0
  6
CONTINUOUS
 62
     7
100
AcDbCircle
 10
144.2
 20
-66.5
 30
0.0
 40
4.249999999999986
  0
LWPOLYLINE
  5
25F
330
209
100
AcDbEntity
  8
0
  6
CONTINUOUS
 62
     7
100
AcDbPolyline
 90
       12
 70
     1
 43
0.0
 10
484.0
 20
18.5
 10
-484.0
 20
18.5
 10
-484.0
 20
-54.5
 10
-510.5
 20
-54.5
 42
0.414213562373095
 10
-514.5000000000002
 20
-58.5
 10
-514.5
 20
-74.5
 42
0.414213562373095
 10
-510.5
 20
-78.50000000000028
 10
510.5
 20
-78.5
 42
0.414213562373095
 10
514.5000000000002
 20
-74.5
 10
514.5
 20
-58.5
 42
0.414213562373095
 10
510.5
 20
-54.49999999999972
 10
484.0
 20
-54.5
  0
LWPOLYLINE
  5
552
330
209
100
AcDbEntity
  8
0
  6
CONTINUOUS
 62
     7
100
AcDbPolyline
 90
        8
 70
     1
 43
0.0
 10
-469.5
 20
-15.5
 10
-470.5
 20
-15.49999999999994
 42
-0.414213562373095
 10
-471.5
 20
-14.5
 10
-471.5
 20
1.5
 42
-0.414213562373095
 10
-470.5
 20
2.499999999999943
 10
-469.5
 20
2.5
 42
-0.414213562373095
 10
-468.4999999999999
 20
1.5
 10
-468.5
 20
-14.5
 42
-0.414213562373095
  0
LWPOLYLINE
  5
579
330
209
100
AcDbEntity
  8
0
  6
CONTINUOUS
 62
     7
100
AcDbPolyline
 90
        8
 70
     1
 43
0.0
 10
-411.5000000000001
 20
-15.5
 10
-412.5000000000001
 20
-15.49999999999994
 42
-0.414213562373095
 10
-413.5000000000001
 20
-14.5
 10
-413.5000000000001
 20
1.5
 42
-0.414213562373095
 10
-412.5000000000001
 20
2.499999999999943
 10
-411.5000000000001
 20
2.5
 42
-0.414213562373095
 10
-410.5
 20
1.5
 10
-410.5000000000001
 20
-14.5
 42
-0.414213562373095
  0
LWPOLYLINE
  5
57A
330
209
100
AcDbEntity
  8
0
  6
CONTINUOUS
 62
     7
100
AcDbPolyline
 90
        8
 70
     1
 43
0.0
 10
-394.9999999999999
 20
-15.5
 10
-395.9999999999999
 20
-15.49999999999994
 42
-0.414213562373095
 10
-396.9999999999999
 20
-14.5
 10
-396.9999999999999
 20
1.5
 42
-0.414213562373095
 10
-395.9999999999999
 20
2.499999999999943
 10
-394.9999999999999
 20
2.5
 42
-0.414213562373095
 10
-393.9999999999999
 20
1.5
 10
-393.9999999999999
 20
-14.5
 42
-0.414213562373095
  0
LWPOLYLINE
  5
57B
330
209
100
AcDbEntity
  8
0
  6
CONTINUOUS
 62
     7
100
AcDbPolyline
 90
        8
 70
     1
 43
0.0
 10
-336.9999999999999
 20
-15.5
 10
-337.9999999999999
 20
-15.49999999999994
 42
-0.414213562373095
 10
-338.9999999999999
 20
-14.5
 10
-338.9999999999999
 20
1.5
 42
-0.414213562373095
 10
-337.9999999999999
 20
2.499999999999943
 10
-336.9999999999999
 20
2.5
 42
-0.414213562373095
 10
-335.9999999999999
 20
1.5
 10
-335.9999999999999
 20
-14.5
 42
-0.414213562373095
  0
LWPOLYLINE
  5
57C
330
209
100
AcDbEntity
  8
0
  6
CONTINUOUS
 62
     7
100
AcDbPolyline
 90
        8
 70
     1
 43
0.0
 10
-320.5000000000001
 20
-15.5
 10
-321.5000000000001
 20
-15.49999999999994
 42
-0.414213562373095
 10
-322.5000000000001
 20
-14.5
 10
-322.5000000000001
 20
1.5
 42
-0.414213562373095
 10
-321.5000000000001
 20
2.499999999999943
 10
-320.5000000000001
 20
2.5
 42
-0.414213562373095
 10
-319.5
 20
1.5
 10
-319.5000000000001
 20
-14.5
 42
-0.414213562373095
  0
LWPOLYLINE
  5
57D
330
209
100
AcDbEntity
  8
0
  6
CONTINUOUS
 62
     7
100
AcDbPolyline
 90
        8
 70
     1
 43
0.0
 10
-262.4999999999999
 20
-15.5
 10
-263.4999999999999
 20
-15.49999999999994
 42
-0.414213562373095
 10
-264.4999999999999
 20
-14.5
 10
-264.4999999999999
 20
1.5
 42
-0.414213562373095
 10
-263.4999999999999
 20
2.499999999999943
 10
-262.4999999999999
 20
2.5
 42
-0.414213562373095
 10
-261.4999999999999
 20
1.5
 10
-261.4999999999999
 20
-14.5
 42
-0.414213562373095
  0
LWPOLYLINE
  5
57E
330
209
100
AcDbEntity
  8
0
  6
CONTINUOUS
 62
     7
100
AcDbPolyline
 90
        8
 70
     1
 43
0.0
 10
-246.0
 20
-15.5
 10
-247.0
 20
-15.49999999999994
 42
-0.414213562373095
 10
-248.0
 20
-14.5
 10
-248.0
 20
1.5
 42
-0.414213562373095
 10
-247.0
 20
2.499999999999943
 10
-246.0
 20
2.5
 42
-0.414213562373095
 10
-245.0
 20
1.5
 10
-245.0
 20
-14.5
 42
-0.414213562373095
  0
LWPOLYLINE
  5
57F
330
209
100
AcDbEntity
  8
0
  6
CONTINUOUS
 62
     7
100
AcDbPolyline
 90
        8
 70
     1
 43
0.0
 10
-188.0
 20
-15.5
 10
-189.0
 20
-15.49999999999994
 42
-0.414213562373095
 10
-190.0
 20
-14.5
 10
-190.0
 20
1.5
 42
-0.414213562373095
 10
-189.0
 20
2.499999999999943
 10
-188.0
 20
2.5
 42
-0.414213562373095
 10
-186.9999999999999
 20
1.5
 10
-187.0
 20
-14.5
 42
-0.414213562373095
  0
LWPOLYLINE
  5
580
330
209
100
AcDbEntity
  8
0
  6
CONTINUOUS
 62
     7
100
AcDbPolyline
 90
        8
 70
     1
 43
0.0
 10
189.0
 20
-15.5
 10
188.0
 20
-15.49999999999994
 42
-0.414213562373095
 10
187.0
 20
-14.5
 10
187.0
 20
1.5
 42
-0.414213562373095
 10
188.0
 20
2.499999999999943
 10
189.0
 20
2.5
 42
-0.414213562373095
 10
190.0000000000001
 20
1.5
 10
190.0
 20
-14.5
 42
-0.414213562373095
  0
LWPOLYLINE
  5
581
330
209
100
AcDbEntity
  8
0
  6
CONTINUOUS
 62
     7
100
AcDbPolyline
 90
        8
 70
     1
 43
0.0
 10
247.0
 20
-15.5
 10
246.0
 20
-15.49999999999994
 42
-0.414213562373095
 10
245.0
 20
-14.5
 10
245.0
 20
1.5
 42
-0.414213562373095
 10
246.0
 20
2.499999999999943
 10
247.0
 20
2.5
 42
-0.414213562373095
 10
248.0000000000001
 20
1.5
 10
248.0
 20
-14.5
 42
-0.414213562373095
  0
LWPOLYLINE
  5
582
330
209
100
AcDbEntity
  8
0
  6
CONTINUOUS
 62
     7
100
AcDbPolyline
 90
        8
 70
     1
 43
0.0
 10
263.5
 20
-15.5
 10
262.5
 20
-15.49999999999994
 42
-0.414213562373095
 10
261.5
 20
-14.5
 10
261.5
 20
1.5
 42
-0.414213562373095
 10
262.5
 20
2.499999999999943
 10
263.5
 20
2.5
 42
-0.414213562373095
 10
264.5000000000001
 20
1.5
 10
264.5
 20
-14.5
 42
-0.414213562373095
  0
LWPOLYLINE
  5
583
330
209
100
AcDbEntity
  8
0
  6
CONTINUOUS
 62
     7
100
AcDbPolyline
 90
        8
 70
     1
 43
0.0
 10
321.5
 20
-15.5
 10
320.5
 20
-15.49999999999994
 42
-0.414213562373095
 10
319.5
 20
-14.5
 10
319.5
 20
1.5
 42
-0.414213562373095
 10
320.5
 20
2.499999999999943
 10
321.5
 20
2.5
 42
-0.414213562373095
 10
322.5000000000001
 20
1.5
 10
322.5
 20
-14.5
 42
-0.414213562373095
  0
LWPOLYLINE
  5
584
330
209
100
AcDbEntity
  8
0
  6
CONTINUOUS
 62
     7
100
AcDbPolyline
 90
        8
 70
     1
 43
0.0
 10
338.0
 20
-15.5
 10
337.0
 20
-15.49999999999994
 42
-0.414213562373095
 10
336.0
 20
-14.5
 10
336.0
 20
1.5
 42
-0.414213562373095
 10
337.0
 20
2.499999999999943
 10
338.0
 20
2.5
 42
-0.414213562373095
 10
339.0000000000001
 20
1.5
 10
339.0
 20
-14.5
 42
-0.414213562373095
  0
LWPOLYLINE
  5
585
330
209
100
AcDbEntity
  8
0
  6
CONTINUOUS
 62
     7
100
AcDbPolyline
 90
        8
 70
     1
 43
0.0
 10
396.0
 20
-15.5
 10
395.0
 20
-15.49999999999994
 42
-0.414213562373095
 10
394.0
 20
-14.5
 10
394.0
 20
1.5
 42
-0.414213562373095
 10
395.0
 20
2.499999999999943
 10
396.0
 20
2.5
 42
-0.414213562373095
 10
397.0000000000001
 20
1.5
 10
397.0
 20
-14.5
 42
-0.414213562373095
  0
LWPOLYLINE
  5
586
330
209
100
AcDbEntity
  8
0
  6
CONTINUOUS
 62
     7
100
AcDbPolyline
 90
        8
 70
     1
 43
0.0
 10
412.5
 20
-15.5
 10
411.5
 20
-15.49999999999994
 42
-0.414213562373095
 10
410.5
 20
-14.5
 10
410.5
 20
1.5
 42
-0.414213562373095
 10
411.5
 20
2.499999999999943
 10
412.5
 20
2.5
 42
-0.414213562373095
 10
413.5000000000001
 20
1.5
 10
413.5
 20
-14.5
 42
-0.414213562373095
  0
LWPOLYLINE
  5
587
330
209
100
AcDbEntity
  8
0
  6
CONTINUOUS
 62
     7
100
AcDbPolyline
 90
        8
 70
     1
 43
0.0
 10
470.5
 20
-15.5
 10
469.5
 20
-15.49999999999994
 42
-0.414213562373095
 10
468.5
 20
-14.5
 10
468.5
 20
1.5
 42
-0.414213562373095
 10
469.5
 20
2.499999999999943
 10
470.5
 20
2.5
 42
-0.414213562373095
 10
471.5000000000001
 20
1.5
 10
471.5
 20
-14.5
 42
-0.414213562373095
  0
LWPOLYLINE
  5
588
330
209
100
AcDbEntity
  8
0
  6
CONTINUOUS
 62
     7
100
AcDbPolyline
 90
        6
 70
     1
 43
0.0
 10
432.0
 20
-17.5
 10
432.0
 20
-25.5
 10
450.0
 20
-25.5
 10
450.0
 20
-17.5
 42
0.414213562373095
 10
449.0
 20
-16.5
 10
433.0
 20
-16.5
 42
0.414213562373095
  0
LWPOLYLINE
  5
5A5
330
209
100
AcDbEntity
  8
0
  6
CONTINUOUS
 62
     7
100
AcDbPolyline
 90
        6
 70
     1
 43
0.0
 10
357.5
 20
-17.5
 10
357.5
 20
-25.5
 10
375.5
 20
-25.5
 10
375.5000000000001
 20
-17.5
 42
0.414213562373095
 10
374.5
 20
-16.5
 10
358.5
 20
-16.5
 42
0.414213562373095
  0
LWPOLYLINE
  5
5C2
330
209
100
AcDbEntity
  8
0
  6
CONTINUOUS
 62
     7
100
AcDbPolyline
 90
        6
 70
     1
 43
0.0
 10
283.0
 20
-17.5
 10
283.0
 20
-25.5
 10
301.0
 20
-25.5
 10
301.0000000000001
 20
-17.5
 42
0.414213562373095
 10
300.0
 20
-16.5
 10
284.0
 20
-16.5
 42
0.414213562373095
  0
LWPOLYLINE
  5
5C3
330
209
100
AcDbEntity
  8
0
  6
CONTINUOUS
 62
     7
100
AcDbPolyline
 90
        6
 70
     1
 43
0.0
 10
208.5
 20
-17.5
 10
208.5
 20
-25.5
 10
226.5
 20
-25.5
 10
226.5000000000001
 20
-17.5
 42
0.414213562373095
 10
225.5
 20
-16.5
 10
209.5
 20
-16.5
 42
0.414213562373095
  0
LWPOLYLINE
  5
5C4
330
209
100
AcDbEntity
  8
0
  6
CONTINUOUS
 62
     7
100
AcDbPolyline
 90
        6
 70
     1
 43
0.0
 10
-226.5
 20
-17.5
 10
-226.5
 20
-25.5
 10
-208.5
 20
-25.5
 10
-208.4999999999999
 20
-17.5
 42
0.414213562373095
 10
-209.5
 20
-16.5
 10
-225.5
 20
-16.5
 42
0.414213562373095
  0
LWPOLYLINE
  5
5C5
330
209
100
AcDbEntity
  8
0
  6
CONTINUOUS
 62
     7
100
AcDbPolyline
 90
        6
 70
     1
 43
0.0
 10
-301.0
 20
-17.5
 10
-301.0
 20
-25.5
 10
-283.0
 20
-25.5
 10
-282.9999999999999
 20
-17.5
 42
0.414213562373095
 10
-284.0
 20
-16.5
 10
-300.0
 20
-16.5
 42
0.414213562373095
  0
LWPOLYLINE
  5
5C6
330
209
100
AcDbEntity
  8
0
  6
CONTINUOUS
 62
     7
100
AcDbPolyline
 90
        6
 70
     1
 43
0.0
 10
-375.5
 20
-17.5
 10
-375.5
 20
-25.5
 10
-357.5
 20
-25.5
 10
-357.4999999999999
 20
-17.5
 42
0.414213562373095
 10
-358.5
 20
-16.5
 10
-374.5
 20
-16.5
 42
0.414213562373095
  0
LWPOLYLINE
  5
5C7
330
209
100
AcDbEntity
  8
0
  6
CONTINUOUS
 62
     7
100
AcDbPolyline
 90
        6
 70
     1
 43
0.0
 10
-450.0
 20
-17.5
 10
-450.0
 20
-25.5
 10
-432.0
 20
-25.5
 10
-431.9999999999999
 20
-17.5
 42
0.414213562373095
 10
-433.0
 20
-16.5
 10
-449.0
 20
-16.5
 42
0.414213562373095
  0
ENDSEC
  0
SECTION
  2
OBJECTS
  0
DICTIONARY
  5
1F9
330
0
100
AcDbDictionary
  3
ACAD_GROUP
350
1FA
  3
ACAD_IMAGE_VARS
350
25E
  3
ACAD_MLINESTYLE
350
203
  3
ACAD_SCALELIST
350
21D
  3
APPDATA
350
25C
  3
DWGPROPS
350
5C8
  0
DICTIONARY
  5
1FA
102
{ACAD_REACTORS
330
1F9
102
}
330
1F9
100
AcDbDictionary
  0
RASTERVARIABLES
  5
25E
102
{ACAD_REACTORS
330
1F9
102
}
330
1F9
100
AcDbRasterVariables
 90
        0
 70
     1
 71
     1
 72
     0
  0
DICTIONARY
  5
203
102
{ACAD_REACTORS
330
1F9
102
}
330
1F9
100
AcDbDictionary
  3
STANDARD
350
204
  0
DICTIONARY
  5
21D
102
{ACAD_REACTORS
330
1F9
102
}
330
1F9
100
AcDbDictionary
  0
DICTIONARY
  5
25C
102
{ACAD_REACTORS
330
1F9
102
}
330
1F9
100
AcDbDictionary
  0
XRECORD
  5
5C8
102
{ACAD_REACTORS
330
1F9
102
}
330
1F9
100
AcDbXrecord
  1
DWGPROPS COOKIE
  2

  3

  4

  6

  7

  8
JK
  9

300
=
301
=
302
=
303
=
304
=
305
=
306
=
307
=
308
=
309
=
 40
0.0
 41
2458544.046953229
 42
2458544.050528947
  1

 90
        0
  0
MLINESTYLE
  5
204
102
{ACAD_REACTORS
330
203
102
}
330
203
100
AcDbMlineStyle
  2
Standard
 70
     0
  3

 62
   256
 51
90.0
 52
90.0
 71
     2
 49
0.5
 62
   256
  6
BYLAYER
 49
-0.5
 62
   256
  6
BYLAYER
  0
ENDSEC
  0
EOF
